<svg xmlns="http://www.w3.org/2000/svg" xmlns:xlink="http://www.w3.org/1999/xlink" x="0" y="0" version="1.1" viewBox="0 0 429 461" style="enable-background:new 0 0 429 461" xml:space="preserve"><style type="text/css">.st0{fill:url(#Shape_1_)}.st1{fill:url(#SVGID_1_)}.st2{fill:url(#SVGID_2_)}.st3{fill:url(#SVGID_3_)}.st4{fill:url(#SVGID_4_)}.st5{fill:url(#SVGID_5_)}.st6{fill:url(#SVGID_6_)}.st7{fill:url(#SVGID_7_)}.st8{fill:url(#SVGID_8_)}.st9{fill:url(#SVGID_9_)}.st10{fill:url(#SVGID_10_)}.st11{fill:url(#SVGID_11_)}.st12{fill:url(#SVGID_12_)}.st13{fill:url(#SVGID_13_)}.st14{fill:url(#SVGID_14_)}.st15{fill:url(#SVGID_15_)}.st16{fill:url(#SVGID_16_)}.st17{fill:url(#SVGID_17_)}.st18{fill:url(#SVGID_18_)}.st19{fill:url(#SVGID_19_)}.st20{fill:url(#SVGID_20_)}.st21{fill:url(#SVGID_21_)}.st22{fill:url(#SVGID_22_)}.st23{fill:url(#SVGID_23_)}.st24{fill:url(#SVGID_24_)}.st25{fill:url(#SVGID_25_)}.st26{fill:url(#SVGID_26_)}.st27{fill:url(#SVGID_27_)}.st28{fill:url(#SVGID_28_)}.st29{fill:url(#SVGID_29_)}.st30{fill:url(#SVGID_30_)}.st31{fill:url(#SVGID_31_)}.st32{fill:url(#SVGID_32_)}.st33{fill:url(#SVGID_33_)}.st34{fill:url(#SVGID_34_)}.st35{fill:url(#SVGID_35_)}.st36{fill:url(#SVGID_36_)}.st37{fill:url(#SVGID_37_)}.st38{fill:url(#SVGID_38_)}.st39{fill:url(#SVGID_39_)}.st40{fill:url(#SVGID_40_)}.st41{fill:url(#SVGID_41_)}.st42{fill:url(#SVGID_42_)}.st43{fill:url(#SVGID_43_)}.st44{fill:url(#SVGID_44_)}.st45{fill:url(#SVGID_45_)}.st46{fill:url(#SVGID_46_)}.st47{fill:url(#SVGID_47_)}.st48{fill:url(#SVGID_48_)}.st49{fill:url(#SVGID_49_)}.st50{fill:url(#SVGID_50_)}.st51{fill:url(#SVGID_51_)}.st52{fill:url(#SVGID_52_)}.st53{fill:url(#SVGID_53_)}.st54{fill:url(#SVGID_54_)}.st55{fill:url(#SVGID_55_)}.st56{fill:url(#SVGID_56_)}.st57{fill:url(#SVGID_57_)}.st58{fill:url(#SVGID_58_)}.st59{fill:url(#SVGID_59_)}.st60{fill:url(#SVGID_60_)}.st61{fill:url(#SVGID_61_)}.st62{fill:url(#SVGID_62_)}.st63{fill:url(#SVGID_63_)}.st64{fill:url(#SVGID_64_)}.st65{fill:url(#SVGID_65_)}.st66{fill:url(#SVGID_66_)}.st67{fill:#fff}.st68{fill:url(#SVGID_67_)}.st69{fill:url(#SVGID_68_)}.st70{display:none}.st71,.st72{fill:none;stroke:#000;stroke-miterlimit:10}.st71{opacity:.14}.st72{display:inline}</style><g id="Layer_4"><linearGradient id="Shape_1_" x1="111.693" x2="333.657" y1="12.014" y2="396.467" gradientUnits="userSpaceOnUse"><stop offset="0" style="stop-color:#f9da66"/><stop offset="1" style="stop-color:#de8259"/></linearGradient><polygon id="Shape_54_" points="214.5 0 0 76.5 32.7 360.3 214.5 461 396.3 360.3 429 76.5" class="st0"/><linearGradient id="SVGID_1_" x1="0" x2="100.9" y1="71.926" y2="71.926" gradientUnits="userSpaceOnUse"><stop offset="0" style="stop-color:#f9da66"/><stop offset="1" style="stop-color:#f8dc65"/></linearGradient><polygon points="1.8 92.3 100.9 73.8 69.8 51.6 0 76.5" class="st1"/><linearGradient id="SVGID_2_" x1="69.777" x2="102" y1="56.986" y2="56.986" gradientUnits="userSpaceOnUse"><stop offset="0" style="stop-color:#dcab41"/><stop offset="1" style="stop-color:#f7af58"/></linearGradient><polygon points="100.9 73.8 102 40.1 69.8 51.6" class="st2"/><linearGradient id="SVGID_3_" x1="100.9" x2="132.196" y1="51.602" y2="51.602" gradientUnits="userSpaceOnUse"><stop offset="0" style="stop-color:#d57238"/><stop offset="1" style="stop-color:#db8f3e"/></linearGradient><polygon points="100.9 73.8 132.2 29.4 102 40.1" class="st3"/><linearGradient id="SVGID_4_" x1="113.546" x2="210.84" y1="48.003" y2="145.297" gradientUnits="userSpaceOnUse"><stop offset="0" style="stop-color:#ae3a4b"/><stop offset="1" style="stop-color:#982c25"/></linearGradient><polygon points="100.9 73.8 230.1 126.1 132.2 29.4" class="st4"/><linearGradient id="SVGID_5_" x1="132.196" x2="245.75" y1="38.96" y2="38.96" gradientUnits="userSpaceOnUse"><stop offset="0" style="stop-color:#f5b954"/><stop offset="1" style="stop-color:#e9a03f"/></linearGradient><polygon points="132.2 29.4 197.8 6 245.8 71.9" class="st5"/><linearGradient id="SVGID_6_" x1="132.196" x2="245.75" y1="77.702" y2="77.702" gradientUnits="userSpaceOnUse"><stop offset="0" style="stop-color:#f27858"/><stop offset="1" style="stop-color:#f27a4e"/></linearGradient><polygon points="132.2 29.4 230.1 126.1 245.8 71.9" class="st6"/><linearGradient id="SVGID_7_" x1="197.756" x2="288.187" y1="35.963" y2="35.963" gradientUnits="userSpaceOnUse"><stop offset="0" style="stop-color:#ffd74f"/><stop offset=".999" style="stop-color:#f5c539"/></linearGradient><polygon points="245.8 71.9 288.2 26.3 214.5 0 197.8 6" class="st7"/><linearGradient id="SVGID_8_" x1="245.75" x2="332.571" y1="49.103" y2="49.103" gradientUnits="userSpaceOnUse"><stop offset="0" style="stop-color:#f7c563"/><stop offset="1" style="stop-color:#f6b03d"/></linearGradient><polygon points="245.8 71.9 332.6 42.2 288.2 26.3" class="st8"/><linearGradient id="SVGID_9_" x1="284.754" x2="331.087" y1="49.407" y2="129.657" gradientUnits="userSpaceOnUse"><stop offset="0" style="stop-color:#3e2649"/><stop offset=".901" style="stop-color:#bf5242"/></linearGradient><polygon points="245.8 71.9 332.6 128.8 332.6 42.2" class="st9"/><linearGradient id="SVGID_10_" x1="230.086" x2="332.571" y1="100.363" y2="100.363" gradientUnits="userSpaceOnUse"><stop offset="0" style="stop-color:#a93c3b"/><stop offset="1" style="stop-color:#b24c49"/></linearGradient><polygon points="245.8 71.9 230.1 126.1 332.6 128.8" class="st10"/><linearGradient id="SVGID_11_" x1="230.086" x2="338" y1="157.575" y2="157.575" gradientUnits="userSpaceOnUse"><stop offset="0" style="stop-color:#af393d"/><stop offset="1" style="stop-color:#8f3347"/></linearGradient><polygon points="230.1 126.1 230.9 189.1 338 148 332.6 128.8" class="st11"/><linearGradient id="SVGID_12_" x1="332.571" x2="423.273" y1="137.025" y2="137.025" gradientUnits="userSpaceOnUse"><stop offset="0" style="stop-color:#cf4c56"/><stop offset="1" style="stop-color:#d94852"/></linearGradient><polygon points="338 148 421.5 141.1 423.3 126.1 332.6 128.8" class="st12"/><linearGradient id="SVGID_13_" x1="338" x2="421.539" y1="154.425" y2="154.425" gradientUnits="userSpaceOnUse"><stop offset="0" style="stop-color:#953243"/><stop offset="1" style="stop-color:#834152"/></linearGradient><polygon points="338 148 418.4 167.8 421.5 141.1" class="st13"/><linearGradient id="SVGID_14_" x1="338" x2="418.447" y1="189.25" y2="189.25" gradientUnits="userSpaceOnUse"><stop offset="0" style="stop-color:#3d2b46"/><stop offset="1" style="stop-color:#672d45"/></linearGradient><polygon points="338 148 411.2 230.5 418.4 167.8" class="st14"/><linearGradient id="SVGID_15_" x1="338" x2="411.2" y1="189.25" y2="189.25" gradientUnits="userSpaceOnUse"><stop offset="0" style="stop-color:#6d2d47"/><stop offset="1" style="stop-color:#6d314a"/></linearGradient><polygon points="338 148 344 214.8 411.2 230.5" class="st15"/><linearGradient id="SVGID_16_" x1="230.914" x2="344" y1="183.3" y2="183.3" gradientUnits="userSpaceOnUse"><stop offset="0" style="stop-color:#d43742"/><stop offset="1" style="stop-color:#c13449"/></linearGradient><polygon points="338 148 344 214.8 297.6 218.6 230.9 189.1" class="st16"/><linearGradient id="SVGID_17_" x1="314.806" x2="328.073" y1="228.534" y2="205.555" gradientUnits="userSpaceOnUse"><stop offset="0" style="stop-color:#93223b"/><stop offset="1" style="stop-color:#81263b"/></linearGradient><polygon points="297.6 218.6 332.6 237.5 344 214.8" class="st17"/><linearGradient id="SVGID_18_" x1="332.571" x2="411.2" y1="226.125" y2="226.125" gradientUnits="userSpaceOnUse"><stop offset="0" style="stop-color:#523045"/><stop offset="1" style="stop-color:#4a2d42"/></linearGradient><polygon points="332.6 237.5 411.2 230.5 344 214.8" class="st18"/><linearGradient id="SVGID_19_" x1="332.571" x2="411.2" y1="255.1" y2="255.1" gradientUnits="userSpaceOnUse"><stop offset="0" style="stop-color:#6c3143"/><stop offset="1" style="stop-color:#612b42"/></linearGradient><polygon points="332.6 237.5 389 279.7 411.2 230.5" class="st19"/><linearGradient id="SVGID_20_" x1="388.95" x2="411.2" y1="266.95" y2="266.95" gradientUnits="userSpaceOnUse"><stop offset="0" style="stop-color:#593048"/><stop offset="1" style="stop-color:#543248"/></linearGradient><polygon points="389 279.7 402.8 303.4 411.2 230.5" class="st20"/><linearGradient id="SVGID_21_" x1="365" x2="402.832" y1="326.773" y2="326.773" gradientUnits="userSpaceOnUse"><stop offset="0" style="stop-color:#233547"/><stop offset="1" style="stop-color:#3d2e3c"/></linearGradient><polygon points="389 279.7 365 365.7 371.9 373.8 396.3 360.3 402.8 303.4" class="st21"/><linearGradient id="SVGID_22_" x1="332.571" x2="388.95" y1="301.6" y2="301.6" gradientUnits="userSpaceOnUse"><stop offset="0" style="stop-color:#c12e43"/><stop offset="1" style="stop-color:#8a354d"/></linearGradient><polygon points="365 365.7 332.6 237.5 389 279.7" class="st22"/><linearGradient id="SVGID_23_" x1="37.095" x2="82.123" y1="71.883" y2="149.874" gradientUnits="userSpaceOnUse"><stop offset="0" style="stop-color:#f9da66"/><stop offset="1" style="stop-color:#de8259"/></linearGradient><polygon points="100.9 73.8 85.9 147.7 5.7 126.1 1.8 92.3" class="st23"/><linearGradient id="SVGID_24_" x1="45.793" x2="45.793" y1="126.05" y2="167.8" gradientUnits="userSpaceOnUse"><stop offset="0" style="stop-color:#f9da66"/><stop offset="1" style="stop-color:#fbbd7a"/></linearGradient><polygon points="85.9 147.7 10.5 167.8 5.7 126.1" class="st24"/><linearGradient id="SVGID_25_" x1="37.723" x2="69.083" y1="152.083" y2="206.4" gradientUnits="userSpaceOnUse"><stop offset="0" style="stop-color:#ef9763"/><stop offset="1" style="stop-color:#ffc28d"/></linearGradient><polygon points="85.9 147.7 69.8 206 14.1 199 10.5 167.8" class="st25"/><linearGradient id="SVGID_26_" x1="71.69" x2="98.57" y1="155.897" y2="202.454" gradientUnits="userSpaceOnUse"><stop offset="0" style="stop-color:#f26151"/><stop offset="1" style="stop-color:#fe6460"/></linearGradient><polygon points="85.9 147.7 121.7 189.1 69.8 206" class="st26"/><linearGradient id="SVGID_27_" x1="14.115" x2="69.777" y1="218.25" y2="218.25" gradientUnits="userSpaceOnUse"><stop offset="0" style="stop-color:#f3a06b"/><stop offset="1" style="stop-color:#ff8d6f"/></linearGradient><polygon points="69.8 206 18.6 237.5 14.1 199" class="st27"/><linearGradient id="SVGID_28_" x1="29.887" x2="76.276" y1="217.95" y2="244.733" gradientUnits="userSpaceOnUse"><stop offset="0" style="stop-color:#cc3731"/><stop offset="1" style="stop-color:#ed604f"/></linearGradient><polygon points="69.8 206 80.1 231.4 74.9 247.1 19.7 247.1 18.6 237.5" class="st28"/><linearGradient id="SVGID_29_" x1="69.777" x2="121.7" y1="231.05" y2="231.05" gradientUnits="userSpaceOnUse"><stop offset="0" style="stop-color:#fc8068"/><stop offset="1" style="stop-color:#ee5948"/></linearGradient><polygon points="80.1 231.4 121.7 273 121.7 189.1 69.8 206" class="st29"/><linearGradient id="SVGID_30_" x1="97.561" x2="142.266" y1="175.163" y2="97.733" gradientUnits="userSpaceOnUse"><stop offset="0" style="stop-color:#d5423f"/><stop offset="1" style="stop-color:#da5248"/></linearGradient><polygon points="121.7 189.1 150.3 179.3 100.9 73.8 85.9 147.7" class="st30"/><linearGradient id="SVGID_31_" x1="106.122" x2="196.815" y1="68.628" y2="159.321" gradientUnits="userSpaceOnUse"><stop offset="0" style="stop-color:#ee4042"/><stop offset="1" style="stop-color:#d84e47"/></linearGradient><polygon points="150.3 179.3 230.1 126.1 100.9 73.8" class="st31"/><linearGradient id="SVGID_32_" x1="150.3" x2="230.086" y1="152.699" y2="152.699" gradientUnits="userSpaceOnUse"><stop offset="0" style="stop-color:#b31c25"/><stop offset="1" style="stop-color:#b73148"/></linearGradient><polygon points="150.3 179.3 221 176.9 230.1 126.1" class="st32"/><linearGradient id="SVGID_33_" x1="221" x2="230.914" y1="157.575" y2="157.575" gradientUnits="userSpaceOnUse"><stop offset="0" style="stop-color:#68223b"/><stop offset="1" style="stop-color:#862436"/></linearGradient><polygon points="221 176.9 230.9 189.1 230.1 126.1" class="st33"/><linearGradient id="SVGID_34_" x1="19.703" x2="89" y1="276.025" y2="276.025" gradientUnits="userSpaceOnUse"><stop offset="0" style="stop-color:#ff964f"/><stop offset="1" style="stop-color:#fe9348"/></linearGradient><polygon points="74.9 247.1 89 305 23 276 19.7 247.1" class="st34"/><linearGradient id="SVGID_35_" x1="22.99" x2="89" y1="318.163" y2="318.163" gradientUnits="userSpaceOnUse"><stop offset="0" style="stop-color:#ffab3e"/><stop offset="1" style="stop-color:#f29935"/></linearGradient><polygon points="89 305 32.7 360.3 23 276" class="st35"/><linearGradient id="SVGID_36_" x1="55.915" x2="83.947" y1="324.102" y2="372.656" gradientUnits="userSpaceOnUse"><stop offset="0" style="stop-color:#fcb73e"/><stop offset="1" style="stop-color:#feb039"/></linearGradient><polygon points="89 305 80.1 372.3 69.8 380.8 32.7 360.3" class="st36"/><linearGradient id="SVGID_37_" x1="74.938" x2="114" y1="276.025" y2="276.025" gradientUnits="userSpaceOnUse"><stop offset="0" style="stop-color:#fc4c3f"/><stop offset="1" style="stop-color:#f07540"/></linearGradient><polygon points="89 305 114 287 74.9 247.1" class="st37"/><linearGradient id="SVGID_38_" x1="74.938" x2="121.7" y1="259.192" y2="259.192" gradientUnits="userSpaceOnUse"><stop offset="0" style="stop-color:#fc7954"/><stop offset="1" style="stop-color:#ff5f4b"/></linearGradient><polygon points="114 287 121.7 273 80.1 231.4 74.9 247.1" class="st38"/><linearGradient id="SVGID_39_" x1="121.7" x2="150.3" y1="226.174" y2="226.174" gradientUnits="userSpaceOnUse"><stop offset="0" style="stop-color:#f8413a"/><stop offset="1" style="stop-color:#f84543"/></linearGradient><polygon points="121.7 273 150.3 179.3 121.7 189.1" class="st39"/><linearGradient id="SVGID_40_" x1="121.7" x2="190.193" y1="229.524" y2="229.524" gradientUnits="userSpaceOnUse"><stop offset="0" style="stop-color:#fc5644"/><stop offset="1" style="stop-color:#ee4839"/></linearGradient><polygon points="121.7 273 190.2 279.7 150.3 179.3" class="st40"/><linearGradient id="SVGID_41_" x1="150.3" x2="221" y1="228.275" y2="228.275" gradientUnits="userSpaceOnUse"><stop offset="0" style="stop-color:#f45345"/><stop offset="1" style="stop-color:#df5650"/></linearGradient><polygon points="190.2 279.7 221 176.9 150.3 179.3" class="st41"/><linearGradient id="SVGID_42_" x1="190.193" x2="230.914" y1="228.275" y2="228.275" gradientUnits="userSpaceOnUse"><stop offset="0" style="stop-color:#dc584a"/><stop offset="1" style="stop-color:#e35c53"/></linearGradient><polygon points="190.2 279.7 230.9 189.1 221 176.9" class="st42"/><linearGradient id="SVGID_43_" x1="190.193" x2="257.6" y1="234.4" y2="234.4" gradientUnits="userSpaceOnUse"><stop offset="0" style="stop-color:#d53031"/><stop offset="1" style="stop-color:#d8393d"/></linearGradient><polygon points="190.2 279.7 237 259.2 257.6 200.3 230.9 189.1" class="st43"/><linearGradient id="SVGID_44_" x1="111.1" x2="190.193" y1="299.396" y2="299.396" gradientUnits="userSpaceOnUse"><stop offset="0" style="stop-color:#ff7a68"/><stop offset="1" style="stop-color:#ff7b53"/></linearGradient><polygon points="190.2 279.7 111.1 325.8 114 287 121.7 273" class="st44"/><linearGradient id="SVGID_45_" x1="89" x2="114" y1="306.396" y2="306.396" gradientUnits="userSpaceOnUse"><stop offset="0" style="stop-color:#f4463f"/><stop offset="1" style="stop-color:#f74846"/></linearGradient><polygon points="111.1 325.8 89 305 114 287" class="st45"/><linearGradient id="SVGID_46_" x1="80.1" x2="111.1" y1="338.65" y2="338.65" gradientUnits="userSpaceOnUse"><stop offset="0" style="stop-color:#f18e31"/><stop offset="1" style="stop-color:#ff8d44"/></linearGradient><polygon points="111.1 325.8 80.1 372.3 89 305" class="st46"/><linearGradient id="SVGID_47_" x1="69.777" x2="147" y1="397.94" y2="397.94" gradientUnits="userSpaceOnUse"><stop offset="0" style="stop-color:#ffca42"/><stop offset="1" style="stop-color:#ff8642"/></linearGradient><polygon points="80.1 372.3 147 423.6 69.8 380.8" class="st47"/><linearGradient id="SVGID_48_" x1="80.1" x2="132.196" y1="349.046" y2="349.046" gradientUnits="userSpaceOnUse"><stop offset="0" style="stop-color:#ff913b"/><stop offset="1" style="stop-color:#fe9d3f"/></linearGradient><polygon points="80.1 372.3 132.2 351 111.1 325.8" class="st48"/><linearGradient id="SVGID_49_" x1="109.645" x2="146.343" y1="401.845" y2="365.147" gradientUnits="userSpaceOnUse"><stop offset="0" style="stop-color:#fc873f"/><stop offset="1" style="stop-color:#fd883b"/></linearGradient><polygon points="132.2 351 147 423.6 80.1 372.3" class="st49"/><linearGradient id="SVGID_50_" x1="147" x2="223.897" y1="420.485" y2="420.485" gradientUnits="userSpaceOnUse"><stop offset="0" style="stop-color:#ff564c"/><stop offset="1" style="stop-color:#fe434c"/></linearGradient><polygon points="147 423.6 223.9 403 173 438" class="st50"/><linearGradient id="SVGID_51_" x1="111.1" x2="190.193" y1="315.35" y2="315.35" gradientUnits="userSpaceOnUse"><stop offset="0" style="stop-color:#ff5a4a"/><stop offset="1" style="stop-color:#f76042"/></linearGradient><polygon points="132.2 351 190.2 279.7 111.1 325.8" class="st51"/><linearGradient id="SVGID_52_" x1="132.196" x2="221" y1="326.773" y2="326.773" gradientUnits="userSpaceOnUse"><stop offset="0" style="stop-color:#e84041"/><stop offset="1" style="stop-color:#e02e41"/></linearGradient><polygon points="132.2 351 173 373.8 221 340 190.2 279.7" class="st52"/><linearGradient id="SVGID_53_" x1="245.202" x2="199.649" y1="315.798" y2="270.245" gradientUnits="userSpaceOnUse"><stop offset="0" style="stop-color:#ffbe68"/><stop offset="1" style="stop-color:#e9803b"/></linearGradient><polygon points="221 340 237 259.2 221 283 190.2 279.7" class="st53"/><linearGradient id="SVGID_54_" x1="190.193" x2="237" y1="271.096" y2="271.096" gradientUnits="userSpaceOnUse"><stop offset="0" style="stop-color:#e47449"/><stop offset="1" style="stop-color:#f07550"/></linearGradient><polygon points="190.2 279.7 221 283 237 259.2" class="st54"/><linearGradient id="SVGID_55_" x1="237" x2="332.571" y1="229.746" y2="229.746" gradientUnits="userSpaceOnUse"><stop offset="0" style="stop-color:#c42c40"/><stop offset="1" style="stop-color:#bc2d45"/></linearGradient><polygon points="237 259.2 332.6 237.5 297.6 218.6 257.6 200.3" class="st55"/><linearGradient id="SVGID_56_" x1="277.993" x2="277.993" y1="237.5" y2="340" gradientUnits="userSpaceOnUse"><stop offset="0" style="stop-color:#db3443"/><stop offset="1" style="stop-color:#b9313f"/></linearGradient><polygon points="221 340 335 247.1 332.6 237.5 237 259.2" class="st56"/><linearGradient id="SVGID_57_" x1="132.196" x2="173" y1="387.29" y2="387.29" gradientUnits="userSpaceOnUse"><stop offset="0" style="stop-color:#f0603c"/><stop offset="1" style="stop-color:#fb3a42"/></linearGradient><polygon points="173 373.8 169.7 417.5 147 423.6 132.2 351" class="st57"/><linearGradient id="SVGID_58_" x1="205" x2="205" y1="387.29" y2="340" gradientUnits="userSpaceOnUse"><stop offset="0" style="stop-color:#dd3042"/><stop offset="1" style="stop-color:#c02f43"/></linearGradient><polygon points="173 373.8 237 387.3 221 340" class="st58"/><linearGradient id="SVGID_59_" x1="169.672" x2="237" y1="395.679" y2="395.679" gradientUnits="userSpaceOnUse"><stop offset="0" style="stop-color:#ec3048"/><stop offset="1" style="stop-color:#ec2f41"/></linearGradient><polygon points="223.9 403 237 387.3 173 373.8 169.7 417.5" class="st59"/><linearGradient id="SVGID_60_" x1="236.873" x2="193.939" y1="415.976" y2="458.91" gradientUnits="userSpaceOnUse"><stop offset="0" style="stop-color:#ff694c"/><stop offset="1" style="stop-color:#e42e41"/></linearGradient><polygon points="223.9 403 257.6 437.1 214.5 461 173 438" class="st60"/><linearGradient id="SVGID_61_" x1="223.897" x2="257.6" y1="412.208" y2="412.208" gradientUnits="userSpaceOnUse"><stop offset="0" style="stop-color:#d42d46"/><stop offset="1" style="stop-color:#e82e42"/></linearGradient><polygon points="257.6 437.1 237 387.3 223.9 403" class="st61"/><linearGradient id="SVGID_62_" x1="257.6" x2="307.324" y1="420.063" y2="420.063" gradientUnits="userSpaceOnUse"><stop offset="0" style="stop-color:#cc3043"/><stop offset="1" style="stop-color:#9c3044"/></linearGradient><polygon points="257.6 437.1 281.3 403 307.3 409.6" class="st62"/><linearGradient id="SVGID_63_" x1="281.329" x2="371.885" y1="387.642" y2="387.642" gradientUnits="userSpaceOnUse"><stop offset="0" style="stop-color:#6d2f44"/><stop offset="1" style="stop-color:#6c364d"/></linearGradient><polygon points="281.3 403 365 365.7 371.9 373.8 307.3 409.6" class="st63"/><linearGradient id="SVGID_64_" x1="221" x2="365" y1="371.5" y2="371.5" gradientUnits="userSpaceOnUse"><stop offset="0" style="stop-color:#b22e44"/><stop offset="1" style="stop-color:#932d48"/></linearGradient><polygon points="221 340 365 365.7 281.3 403" class="st64"/><linearGradient id="SVGID_65_" x1="221" x2="365" y1="306.375" y2="306.375" gradientUnits="userSpaceOnUse"><stop offset="0" style="stop-color:#9c2e3d"/><stop offset="1" style="stop-color:#702c43"/></linearGradient><polygon points="221 340 365 365.7 335 247.1" class="st65"/><linearGradient id="SVGID_66_" x1="221" x2="281.329" y1="388.563" y2="388.563" gradientUnits="userSpaceOnUse"><stop offset="0" style="stop-color:#cd2e47"/><stop offset="1" style="stop-color:#ca2f43"/></linearGradient><polygon points="281.3 403 257.6 437.1 237 387.3 221 340" class="st66"/><g id="Text_1_" transform="translate(105.000000, 145.000000)"><polygon id="Shape_59_" points="93.8 102.6 66.6 102.6 26.3 32.2 26.3 102.6 -1.1 102.6 -1.1 -10.4 26.3 -10.4 66.5 60 66.5 -10.4 93.9 -10.4" class="st67"/><path id="Shape_58_" d="M218.9,88.1c-5.1,5.2-11.5,9.1-18.5,11.2c-8.6,2.9-17.6,4.4-26.6,4.3 c-14.8,0-26.7-4.5-35.6-13.6c-8.9-9.1-13.7-21.6-14.2-37.7v-9.7c-0.2-10,1.8-19.9,5.9-29.1c3.6-7.9,9.5-14.5,16.9-19.1 c7.7-4.6,16.5-6.9,25.5-6.8c14.1,0,25.1,3.2,32.9,9.6c7.8,6.4,12.4,16,13.7,28.8h-26.4c-0.9-6.3-2.9-10.8-6.1-13.6 c-3.8-2.9-8.5-4.3-13.2-4c-6.5-0.2-12.6,3.1-16,8.7c-3.7,5.8-5.6,14-5.7,24.8v6.7c0,11.2,1.9,19.7,5.8,25.3 c3.9,5.7,10,8.5,18.2,8.5c7.1,0,12.4-1.6,16-4.7V60.2h-19V41.6h46.4V88.1z" class="st67"/><path id="Shape_57_" d="M66.9,181.6v-45h14.8c3.8-0.1,7.6,0.9,10.9,2.7c3.2,1.8,5.8,4.4,7.6,7.6 c1.8,3.4,2.8,7.2,2.8,11.1v2.1c0.1,3.9-0.9,7.7-2.7,11.1c-1.7,3.2-4.3,5.8-7.5,7.7c-3.3,1.9-7,2.8-10.8,2.8L66.9,181.6z M77.9,145 v28.3h3.8c2.8,0.1,5.6-1.1,7.3-3.3c1.9-2.9,2.8-6.4,2.6-9.9v-1.9c0.3-3.5-0.6-6.9-2.6-9.8c-1.8-2.2-4.5-3.5-7.4-3.3L77.9,145z" class="st67"/><polygon id="Shape_56_" points="143.7 162.5 126.1 162.5 126.1 173.3 146.9 173.3 146.9 181.6 114.9 181.6 114.9 136.6 146.9 136.6 146.9 145 126.1 145 126.1 154.5 143.7 154.5" class="st67"/></g><linearGradient id="SVGID_67_" x1="348.9" x2="429" y1="80.27" y2="80.27" gradientUnits="userSpaceOnUse"><stop offset="0" style="stop-color:#bd5349"/><stop offset="1" style="stop-color:#c24d40"/></linearGradient><polygon points="348.9 47.9 424.8 112.6 429 76.5" class="st68"/><linearGradient id="SVGID_68_" x1="400.767" x2="324.553" y1="70.91" y2="114.913" gradientUnits="userSpaceOnUse"><stop offset="0" style="stop-color:#b84d43"/><stop offset="1" style="stop-color:#693143"/></linearGradient><polygon points="332.6 42.2 332.6 128.8 423.3 126.1 424.8 112.6 348.9 47.9" class="st69"/></g><g id="Layer_5" class="st70"><polygon id="Shape_55_" points="694.7 .9 480.2 77.4 512.9 361.2 694.7 461.9 876.5 361.2 909.2 77.4" class="st71"/></g><g id="Layer_6" class="st70"><polygon points="1.8 93.1 100.9 74.7 69.8 52.5 0 77.4" class="st72"/><polygon points="100.9 74.7 102 41 69.8 52.5" class="st72"/><polygon points="100.9 74.7 132.2 30.2 102 41" class="st72"/><polygon points="100.9 74.7 230.1 126.9 132.2 30.2" class="st72"/><polygon points="132.2 30.2 197.8 6.9 245.8 72.8" class="st72"/><polygon points="132.2 30.2 230.1 126.9 245.8 72.8" class="st72"/><polygon points="245.8 72.8 288.2 27.2 214.5 .9 197.8 6.9" class="st72"/><polygon points="245.8 72.8 332.6 43 288.2 27.2" class="st72"/><polygon points="245.8 72.8 332.6 129.7 332.6 43" class="st72"/><polygon points="245.8 72.8 230.1 126.9 332.6 129.7" class="st72"/><polygon points="230.1 126.9 230.9 190 338 148.9 332.6 129.7" class="st72"/><polygon points="332.6 129.7 423.3 126.9 423.3 112.2 348.9 48.8 332.6 43" class="st72"/><polygon points="423.3 112.2 429 77.4 348.9 48.8" class="st72"/><polygon points="338 148.9 421.5 141.9 423.3 126.9 332.6 129.7" class="st72"/><polygon points="338 148.9 418.4 168.7 421.5 141.9" class="st72"/><polygon points="338 148.9 411.2 231.4 418.4 168.7" class="st72"/><polygon points="338 148.9 344 215.6 411.2 231.4" class="st72"/><polygon points="338 148.9 344 215.6 297.6 219.5 230.9 190" class="st72"/><polygon points="297.6 219.5 332.6 238.4 344 215.6" class="st72"/><polygon points="332.6 238.4 411.2 231.4 344 215.6" class="st72"/><polygon points="332.6 238.4 389 280.6 411.2 231.4" class="st72"/><polygon points="389 280.6 402.8 304.3 411.2 231.4" class="st72"/><polygon points="389 280.6 365 366.6 371.9 374.7 396.3 361.2 402.8 304.3" class="st72"/><polygon points="365 366.6 332.6 238.4 389 280.6" class="st72"/><polygon points="100.9 74.7 85.9 148.6 5.7 126.9 1.8 93.1" class="st72"/><polygon points="85.9 148.6 10.5 168.7 5.7 126.9" class="st72"/><polygon points="85.9 148.6 69.8 206.9 14.1 199.9 10.5 168.7" class="st72"/><polygon points="85.9 148.6 121.7 190 69.8 206.9" class="st72"/><polygon points="69.8 206.9 18.6 238.4 14.1 199.9" class="st72"/><polygon points="69.8 206.9 80.1 232.3 74.9 247.9 19.7 247.9 18.6 238.4" class="st72"/><polygon points="80.1 232.3 121.7 273.9 121.7 190 69.8 206.9" class="st72"/><polygon points="121.7 190 150.3 180.2 100.9 74.7 85.9 148.6" class="st72"/><polygon points="150.3 180.2 230.1 126.9 100.9 74.7" class="st72"/><polygon points="150.3 180.2 221 177.7 230.1 126.9" class="st72"/><polygon points="221 177.7 230.9 190 230.1 126.9" class="st72"/><polygon points="74.9 247.9 89 305.9 23 276.9 19.7 247.9" class="st72"/><polygon points="89 305.9 32.7 361.2 23 276.9" class="st72"/><polygon points="89 305.9 80.1 373.2 69.8 381.7 32.7 361.2" class="st72"/><polygon points="89 305.9 114 287.9 74.9 247.9" class="st72"/><polygon points="114 287.9 121.7 273.9 80.1 232.3 74.9 247.9" class="st72"/><polygon points="121.7 273.9 150.3 180.2 121.7 190" class="st72"/><polygon points="121.7 273.9 190.2 280.6 150.3 180.2" class="st72"/><polygon points="190.2 280.6 221 177.7 150.3 180.2" class="st72"/><polygon points="190.2 280.6 230.9 190 221 177.7" class="st72"/><polygon points="190.2 280.6 237 260.1 257.6 201.2 230.9 190" class="st72"/><polygon points="190.2 280.6 111.1 326.7 114 287.9 121.7 273.9" class="st72"/><polygon points="111.1 326.7 89 305.9 114 287.9" class="st72"/><polygon points="111.1 326.7 80.1 373.2 89 305.9" class="st72"/><polygon points="80.1 373.2 147 424.5 69.8 381.7" class="st72"/><polygon points="80.1 373.2 132.2 351.9 111.1 326.7" class="st72"/><polygon points="132.2 351.9 147 424.5 80.1 373.2" class="st72"/><polygon points="147 424.5 223.9 403.9 173 438.9" class="st72"/><polygon points="132.2 351.9 190.2 280.6 111.1 326.7" class="st72"/><polygon points="132.2 351.9 173 374.7 221 340.9 190.2 280.6" class="st72"/><polygon points="221 340.9 237 260.1 221 283.9 190.2 280.6" class="st72"/><polygon points="190.2 280.6 221 283.9 237 260.1" class="st72"/><polygon points="237 260.1 332.6 238.4 297.6 219.5 257.6 201.2" class="st72"/><polygon points="221 340.9 335 247.9 332.6 238.4 237 260.1" class="st72"/><polygon points="173 374.7 169.7 418.4 147 424.5 132.2 351.9" class="st72"/><polygon points="173 374.7 237 388.2 221 340.9" class="st72"/><polygon points="223.9 403.9 237 388.2 173 374.7 169.7 418.4" class="st72"/><polygon points="223.9 403.9 257.6 438 214.5 461.9 173 438.9" class="st72"/><polygon points="257.6 438 237 388.2 223.9 403.9" class="st72"/><polygon points="257.6 438 281.3 403.9 307.3 410.5" class="st72"/><polygon points="281.3 403.9 365 366.6 371.9 374.7 307.3 410.5" class="st72"/><polygon points="221 340.9 365 366.6 281.3 403.9" class="st72"/><polygon points="221 340.9 365 366.6 335 247.9" class="st72"/><polygon points="281.3 403.9 257.6 438 237 388.2 221 340.9" class="st72"/></g></svg>